<svg version="1.1" xmlns="http://www.w3.org/2000/svg" xmlns:xlink="http://www.w3.org/1999/xlink" x="0px" y="0px" viewBox="0 0 31.7 25.8" style="enable-background:new 0 0 31.7 25.8;" xml:space="preserve">
          <path fill="#a3a3a3" d="M28.4,6.5c0,0.3,0,0.6,0,0.8c0,8.6-6.5,18.5-18.5,18.5c-3.7,0-7.1-1.1-10-2.9c0.5,0.1,1,0.1,1.6,0.1c3,0,5.8-1,8.1-2.8
          c-2.9-0.1-5.2-1.9-6.1-4.5c0.4,0.1,0.8,0.1,1.2,0.1c0.6,0,1.2-0.1,1.7-0.2c-3-0.6-5.2-3.2-5.2-6.4c0,0,0-0.1,0-0.1
          c0.9,0.5,1.9,0.8,2.9,0.8C2.5,8.8,1.4,6.8,1.4,4.5c0-1.2,0.3-2.3,0.9-3.3c3.2,3.9,8,6.5,13.4,6.8c-0.1-0.5-0.2-1-0.2-1.5
          c0-3.6,2.9-6.5,6.5-6.5c1.9,0,3.6,0.8,4.7,2c1.5-0.3,2.9-0.8,4.1-1.6C30.3,2,29.3,3.3,28,4.1c1.3-0.1,2.6-0.5,3.7-1
          C30.8,4.4,29.7,5.5,28.4,6.5z"></path>
        </svg>